<?xml version="1.0" encoding="UTF-8"?><svg xmlns="http://www.w3.org/2000/svg" viewBox="0 0 29.98 29.98"><defs><style>.c{fill:#000;}.c,.d{stroke-width:0px;}.d{fill:#fff;}</style></defs><g id="a"><rect class="d" width="29.98" height="29.98" rx="4.6" ry="4.6"/></g><g id="b"><path class="c" d="M24.48,13.22l-.92-.51h0l-8.29-4.6h-.1c-.06-.03-.11-.04-.17-.05h-.34c-.06,0-.12.03-.18.05h-.1l-8.29,4.6c-.44.25-.59.81-.34,1.26.09.15.2.27.34.34l2.29,1.27v4.36c0,1.53,1.23,2.76,2.76,2.76h7.37c1.53,0,2.76-1.23,2.76-2.76v-4.36l1.85-1.03v2.64c0,.51.41.92.92.92s.92-.41.92-.92v-3.16c0-.34-.18-.64-.47-.8h0ZM19.43,19.95c0,.51-.41.92-.92.92h-7.37c-.51,0-.92-.41-.92-.92v-3.35l4.16,2.3.14.05h.09c.08,0,.16,0,.23,0h0c.08,0,.16,0,.23,0h.09c.05,0,.09-.03.14-.05l4.16-2.3v3.35h0ZM14.82,17.06l-6.39-3.55,6.39-3.55,6.39,3.55-6.39,3.55Z"/></g></svg>