<?xml version="1.0" encoding="UTF-8"?><svg id="a" xmlns="http://www.w3.org/2000/svg" viewBox="0 0 1500 1500"><polygon points="1080.16 1125.37 839.05 809 776.22 809.05 776.22 691.33 839.05 691.33 1080.85 374.44 1238.71 374.44 956.49 749.93 1237.73 1125.37 1080.16 1125.37"/><path d="M548.78,1125.56c-70.57,0-137.14-22.14-187.45-62.34-24.87-19.88-44.46-43.11-58.21-69.05-14.45-27.25-21.77-56.23-21.77-86.12,0-35.19,10.58-70.12,30.6-101.02,13.85-21.38,32.24-40.89,54.02-57.45-21.78-16.56-40.17-36.07-54.02-57.45-20.02-30.9-30.6-65.83-30.6-101.02,0-58.81,28.43-113.76,80.04-154.72,50.22-39.86,116.78-61.81,187.4-61.81h267.44v750.98h-267.44ZM545.23,808.14c-37.83,0-73.18,11.02-99.55,31.01-24.72,18.74-38.34,43.15-38.34,68.73s13.62,49.98,38.34,68.73c26.37,20,61.74,31.01,99.59,31.01l137.93.3v-199.03l-137.97-.74ZM545.23,491.28c-37.83,0-73.18,11.02-99.55,31.01-24.72,18.74-38.34,43.15-38.34,68.73s13.62,49.98,38.34,68.73c26.37,20,61.74,31.01,99.59,31.01l137.93.3v-199.03l-137.97-.74Z"/></svg>